<?xml version="1.0" standalone="no"?>
<!DOCTYPE svg PUBLIC "-//W3C//DTD SVG 20010904//EN"
        "http://www.w3.org/TR/2001/REC-SVG-20010904/DTD/svg10.dtd">
<svg version="1.0" xmlns="http://www.w3.org/2000/svg"
     width="570.000000pt" height="570.000000pt" viewBox="0 0 570.000000 570.000000"
     preserveAspectRatio="xMidYMid meet">
    <metadata>
        Created by potrace 1.15, written by Peter Selinger 2001-2017
    </metadata>
    <g transform="translate(0.000000,570.000000) scale(0.100000,-0.100000)"
       fill="#000000" stroke="none">
        <path d="M1732 4935 c-145 -77 -222 -131 -222 -155 0 -11 3 -20 7 -20 4 0 41
22 82 49 42 27 119 74 171 103 89 50 109 70 78 75 -7 2 -60 -22 -116 -52z"/>
        <path d="M3817 4983 c-15 -14 -4 -23 88 -72 53 -28 129 -73 171 -101 83 -55
94 -59 94 -31 0 21 -89 83 -231 159 -97 52 -110 57 -122 45z"/>
        <path d="M1902 4910 c-110 -53 -288 -155 -299 -173 -4 -7 0 -8 13 -3 10 5 35
12 54 17 19 4 79 32 134 62 54 30 127 67 162 82 45 19 64 32 62 43 -2 8 -7 17
-13 18 -5 1 -56 -19 -113 -46z"/>
        <path d="M3646 4944 c-4 -11 18 -26 97 -63 56 -27 127 -63 157 -81 51 -31 169
-74 178 -66 11 12 -384 226 -416 226 -6 0 -13 -7 -16 -16z"/>
        <path d="M2080 4876 c-98 -38 -260 -116 -260 -125 0 -3 4 -12 8 -19 6 -9 25
-3 78 23 38 20 116 55 174 79 59 24 105 49 105 56 0 22 -17 20 -105 -14z"/>
        <path d="M3490 4891 c0 -15 13 -24 53 -36 28 -10 107 -43 174 -75 103 -49 124
-56 134 -44 6 8 10 16 8 18 -25 23 -332 156 -360 156 -5 0 -9 -9 -9 -19z"/>
        <path d="M1398 4764 c-25 -31 -55 -75 -66 -98 -18 -38 -19 -48 -8 -131 12 -97
17 -99 36 -15 7 30 19 66 26 80 l14 25 -5 -25 c-3 -14 -10 -47 -15 -74 -6 -27
-9 -50 -7 -52 2 -2 21 2 43 9 38 13 39 16 50 78 13 71 17 202 8 237 -10 34
-27 27 -76 -34z"/>
        <path d="M4207 4813 c-13 -12 -7 -207 8 -276 16 -75 70 -187 91 -187 18 0 17
23 -6 155 -10 60 -17 111 -16 112 2 2 13 -32 25 -74 13 -43 26 -89 30 -103 5
-17 10 13 15 89 6 111 6 114 -20 159 -28 47 -101 132 -114 132 -3 0 -10 -3
-13 -7z"/>
        <path d="M1945 4705 c-71 -36 -137 -71 -145 -78 -19 -15 -73 -87 -66 -87 3 0
34 18 68 41 35 22 118 68 186 101 112 55 140 78 101 86 -8 1 -72 -27 -144 -63z"/>
        <path d="M3577 4763 c-16 -15 -2 -26 87 -68 51 -24 135 -68 185 -98 50 -30 91
-53 91 -50 0 3 -15 25 -34 47 -26 32 -63 56 -157 103 -134 66 -162 77 -172 66z"/>
        <path d="M1650 4712 c-36 -10 -81 -26 -100 -37 -30 -18 -35 -28 -45 -83 -7
-34 -10 -62 -7 -62 2 0 33 20 69 45 36 26 67 44 69 42 2 -2 -23 -26 -55 -53
-33 -27 -60 -52 -60 -55 -1 -3 25 -9 57 -12 57 -6 57 -6 100 36 49 47 126 172
117 187 -9 15 -71 11 -145 -8z"/>
        <path d="M3886 4721 c-10 -16 55 -127 109 -185 36 -38 50 -47 67 -42 13 3 41
6 63 6 l40 1 -65 61 c-68 63 -60 64 24 4 28 -19 51 -34 53 -32 2 2 1 28 -3 59
-5 45 -12 60 -31 73 -65 42 -242 80 -257 55z"/>
        <path d="M1219 4618 c-17 -24 -44 -70 -60 -104 -27 -59 -27 -63 -14 -115 7
-30 16 -71 20 -92 9 -53 21 -38 28 35 3 35 10 74 16 88 8 19 9 6 4 -52 -3 -43
-3 -78 0 -78 4 0 22 7 40 16 31 15 35 21 41 70 3 30 2 96 -4 147 -17 146 -21
152 -71 85z"/>
        <path d="M4407 4653 c-9 -14 -27 -161 -27 -218 0 -103 46 -255 78 -255 13 0
14 18 9 133 -6 138 7 149 19 16 7 -65 24 -108 24 -57 0 13 8 60 17 105 l17 83
-34 70 c-33 69 -93 140 -103 123z"/>
        <path d="M1050 4440 c-28 -40 -70 -143 -70 -174 0 -14 12 -62 28 -108 l27 -83
11 95 11 95 2 -65 c2 -86 8 -94 49 -68 29 18 32 24 32 73 0 86 -40 265 -60
265 -5 0 -18 -14 -30 -30z"/>
        <path d="M1422 4451 c-51 -18 -92 -45 -92 -62 0 -5 55 -7 123 -4 121 4 119 0
-13 -22 -31 -5 -25 -7 52 -23 48 -10 91 -21 96 -24 11 -7 152 39 178 58 17 13
16 15 -16 35 -94 58 -230 75 -328 42z"/>
        <path d="M4015 4446 c-72 -23 -115 -45 -115 -58 0 -11 58 -39 123 -59 50 -15
64 -16 95 -5 20 7 59 16 85 20 27 4 46 10 43 13 -3 4 -39 12 -78 18 l-73 12
68 2 c38 0 67 4 65 9 -3 4 -10 22 -17 40 -13 31 -15 32 -69 32 -32 -1 -88 -11
-127 -24z"/>
        <path d="M4585 4458 c-28 -76 -37 -129 -41 -238 -4 -102 -1 -134 13 -174 10
-27 23 -51 29 -53 13 -4 23 60 25 151 2 113 17 128 18 19 1 -61 5 -103 11
-103 6 0 10 9 10 20 0 12 12 57 27 101 26 79 26 81 10 132 -20 61 -73 157 -88
157 -5 0 -12 -6 -14 -12z"/>
        <path d="M1327 4310 c-72 -19 -175 -88 -150 -103 4 -2 49 4 98 14 122 25 172
23 75 -3 -89 -23 -109 -37 -53 -36 22 0 71 -3 109 -6 67 -6 71 -5 138 32 38
21 71 43 73 49 12 34 -208 73 -290 53z"/>
        <path d="M4175 4309 c-57 -13 -125 -39 -125 -49 0 -4 36 -27 81 -50 72 -37 85
-41 127 -35 26 3 68 6 95 7 26 0 47 4 47 8 0 4 -21 13 -47 20 -91 23 -101 30
-35 24 66 -6 68 -5 51 43 -9 26 -16 31 -56 37 -57 8 -87 6 -138 -5z"/>
        <path d="M896 4243 c-20 -41 -56 -161 -56 -190 0 -14 8 -40 19 -57 10 -17 26
-52 36 -79 10 -26 20 -45 23 -42 3 2 5 44 4 92 l0 88 10 -70 c5 -38 11 -72 13
-74 2 -2 18 7 34 19 25 17 31 29 31 58 0 68 -69 282 -91 282 -5 0 -15 -12 -23
-27z"/>
        <path d="M4731 4225 c-38 -80 -64 -195 -65 -280 -2 -168 31 -209 57 -72 38
195 37 190 32 77 -3 -82 -1 -100 8 -80 6 14 25 58 43 98 31 67 33 77 24 125
-11 58 -58 177 -70 177 -4 0 -17 -20 -29 -45z"/>
        <path d="M1174 4129 c-57 -22 -134 -83 -134 -106 0 -10 6 -13 18 -10 114 36
220 67 232 66 8 0 -25 -16 -75 -35 -49 -19 -90 -36 -92 -37 -1 -2 45 -1 103 0
81 2 113 7 144 23 42 21 110 77 110 90 0 15 -89 30 -172 29 -57 0 -99 -6 -134
-20z"/>
        <path d="M2983 4140 c-50 -12 -95 -43 -132 -90 -18 -25 -40 -44 -48 -42 -23 5
-81 -18 -112 -43 -26 -23 -30 -23 -67 -10 -51 18 -103 18 -157 0 -32 -11 -52
-12 -77 -5 -43 12 -99 -2 -139 -36 -27 -22 -34 -24 -66 -15 -41 11 -88 1 -117
-26 -15 -14 -37 -18 -87 -18 -56 0 -74 -5 -108 -27 -56 -37 -72 -78 -78 -195
-4 -101 -14 -145 -36 -158 -6 -4 -61 -8 -123 -9 -100 -1 -116 -4 -164 -29 -66
-35 -105 -88 -136 -186 -51 -163 -96 -454 -96 -624 0 -144 17 -177 171 -332
134 -137 144 -155 129 -249 -15 -93 19 -153 118 -209 l42 -24 -132 -35 c-118
-31 -134 -33 -140 -19 -3 9 -16 42 -28 73 -12 32 -28 58 -34 58 -15 0 -53 -78
-70 -145 -7 -31 -18 -51 -28 -53 -14 -3 -15 3 -7 37 5 22 18 65 30 96 22 60
21 83 -7 183 -8 28 -19 52 -24 52 -18 0 -69 -81 -90 -145 -23 -70 -28 -182
-11 -228 16 -42 -17 -50 -90 -22 -109 43 -119 61 -14 25 32 -11 62 -20 66 -20
10 0 0 60 -13 77 -25 31 -318 81 -318 53 0 -20 59 -89 113 -131 44 -35 55 -39
110 -40 l62 -1 -35 -15 c-19 -8 -51 -18 -70 -21 -19 -3 -39 -11 -43 -19 -18
-30 -56 -7 -38 24 8 15 -1 29 -53 78 -34 33 -69 75 -77 93 -7 17 -18 32 -23
32 -19 0 -95 -67 -120 -105 -48 -73 -49 -70 143 -419 39 -71 70 -130 68 -132
-4 -3 -338 -144 -343 -144 -2 0 -4 92 -4 204 l0 203 -160 128 c-88 71 -159
129 -158 131 2 1 122 52 268 114 146 61 268 114 272 118 4 4 -6 22 -21 41
l-27 33 -255 -107 c-347 -146 -363 -154 -367 -186 -3 -23 18 -42 170 -164 95
-76 177 -141 182 -146 5 -4 8 -104 7 -223 -1 -139 2 -223 9 -236 14 -27 50
-26 119 4 178 78 341 146 350 146 5 0 39 -55 76 -122 75 -138 103 -172 160
-199 75 -35 154 -26 322 35 520 188 983 266 1507 253 484 -12 845 -84 1376
-276 138 -50 250 -40 320 29 20 19 65 87 99 150 35 63 67 119 71 124 5 5 92
-27 202 -74 125 -54 207 -83 233 -84 l40 -1 3 232 2 232 186 147 c161 129 185
152 182 174 -2 19 -15 31 -51 48 -64 30 -567 242 -575 242 -4 0 -17 -16 -29
-35 -21 -32 -22 -35 -5 -43 14 -8 245 -106 457 -195 32 -14 60 -29 62 -33 1
-5 -64 -61 -144 -124 -80 -63 -151 -124 -159 -135 -11 -15 -14 -64 -14 -213 0
-152 -3 -193 -12 -189 -7 3 -83 36 -168 72 -85 37 -156 68 -158 70 -2 2 51
102 117 224 67 121 121 232 121 246 0 46 -26 90 -81 138 -30 26 -58 47 -64 47
-6 0 -16 -13 -23 -29 -7 -15 -41 -56 -76 -89 -55 -53 -62 -64 -58 -91 4 -26 1
-31 -17 -31 -11 0 -21 6 -21 14 0 8 -16 15 -42 19 -24 2 -56 11 -73 18 l-30
13 45 3 c25 2 55 5 67 8 39 9 173 138 173 166 0 23 -211 -6 -302 -42 -29 -11
-74 -34 -99 -50 -67 -42 -90 -31 -113 54 -18 66 -49 127 -64 127 -10 0 -62
-109 -62 -129 0 -17 -14 -14 -187 28 -203 51 -339 78 -532 105 l-156 23 85 7
c277 24 585 123 680 218 49 49 57 86 40 193 -9 58 -10 87 -2 101 6 10 58 75
116 144 133 157 151 198 142 320 -18 245 -139 664 -213 743 -71 74 -164 99
-286 78 -78 -13 -114 -2 -123 38 -3 14 -10 42 -15 61 -5 19 -9 55 -9 80 -1 59
-30 121 -71 151 -29 21 -46 24 -115 24 -56 0 -88 5 -105 16 -36 24 -80 29
-117 14 -30 -13 -35 -12 -68 10 -47 32 -88 39 -140 25 -33 -10 -54 -10 -88 -1
-50 12 -57 12 -103 1z m109 -90 l-2 -33 39 36 c21 19 52 38 69 42 41 8 94 -15
122 -55 l22 -31 27 25 c16 16 39 26 56 26 30 0 65 -25 65 -46 0 -24 20 -26 54
-5 76 47 172 11 191 -72 10 -42 -1 -44 -20 -3 -19 40 -55 77 -40 41 36 -88 27
-135 -30 -162 -29 -14 -40 -15 -55 -5 -26 16 -25 17 -25 -24 0 -28 -6 -41 -27
-57 -24 -18 -30 -19 -58 -7 -18 7 -36 25 -42 39 l-11 26 -6 -24 c-7 -27 -41
-39 -172 -61 -52 -9 -70 -16 -74 -30 -3 -11 -20 -31 -37 -45 -26 -22 -39 -26
-72 -23 -23 3 -49 8 -58 12 -16 7 -17 4 -12 -23 19 -93 -72 -176 -157 -141
-65 27 -90 111 -53 182 15 29 15 30 -1 25 -27 -11 -74 20 -84 56 -6 23 -10 26
-11 12 -4 -36 2 -60 18 -78 8 -9 13 -20 10 -22 -3 -3 -17 8 -32 25 -37 44 -35
92 5 132 28 28 29 33 18 59 -9 23 -9 36 1 59 15 37 37 50 85 50 28 0 44 -7 66
-31 31 -33 37 -24 18 29 -26 76 86 163 186 142 27 -6 30 -10 27 -40z m-482
-143 c27 -10 36 -19 41 -46 6 -28 3 -41 -17 -66 -13 -18 -24 -42 -24 -54 0
-19 -4 -21 -22 -15 -13 4 -30 8 -39 9 -9 0 -28 11 -44 23 -55 43 -146 12 -145
-50 1 -23 1 -22 21 5 14 19 30 27 50 27 31 0 69 -30 69 -55 0 -19 9 -19 34 0
11 8 28 15 38 15 21 0 40 -32 32 -54 -5 -12 -2 -15 10 -10 10 4 18 0 22 -10 3
-8 21 -25 39 -36 24 -15 36 -32 44 -65 6 -24 25 -60 41 -79 37 -41 37 -49 4
-71 -25 -16 -30 -16 -60 -2 -18 9 -35 25 -39 36 -11 34 -28 25 -21 -11 8 -41
48 -78 85 -78 35 0 81 35 81 61 0 14 5 19 18 17 26 -6 17 -48 -18 -83 -26 -25
-38 -30 -79 -30 -38 0 -55 5 -75 24 -30 28 -50 82 -43 117 5 28 -1 30 -29 9
-40 -30 -99 -15 -144 35 -23 26 -35 30 -125 40 -125 14 -135 17 -135 41 0 29
-13 23 -30 -14 -16 -33 -42 -44 -84 -33 -26 6 -49 50 -41 77 8 23 -11 25 -23
3 -8 -14 -13 -15 -47 -3 -50 18 -68 48 -63 101 3 24 8 52 12 63 6 16 4 15 -11
-4 -10 -13 -23 -38 -30 -55 l-11 -31 -1 37 c-1 47 37 93 88 109 33 10 45 8 86
-10 57 -25 55 -25 55 -3 0 59 80 84 128 40 23 -23 24 -23 35 -3 45 82 121 99
196 44 l43 -31 -7 31 c-6 26 -3 32 17 40 32 13 76 12 118 -2z m1146 -124 c3
-16 9 -41 13 -57 4 -16 19 -39 34 -50 27 -20 28 -20 134 -2 97 16 113 16 156
3 47 -15 123 -64 113 -74 -3 -3 -17 4 -33 14 -36 26 -88 43 -127 43 -44 -1
-197 -47 -216 -65 -10 -10 -15 -33 -14 -63 2 -84 189 -842 220 -889 24 -37 54
-28 123 37 36 33 66 60 68 60 2 0 -25 -37 -60 -82 -102 -132 -102 -133 -57
-275 39 -121 39 -152 -2 -198 -113 -129 -671 -256 -897 -203 -96 22 -117 61
-135 248 -32 314 -101 812 -146 1049 -11 57 -17 108 -14 112 9 16 42 10 48 -8
28 -94 124 -760 141 -978 8 -101 19 -130 56 -145 16 -7 31 -11 33 -9 8 8 -77
613 -119 849 -8 47 -15 89 -15 93 0 5 19 7 42 5 l43 -3 13 -70 c37 -204 95
-551 117 -709 14 -99 26 -181 28 -182 1 -1 18 -4 37 -6 30 -3 35 0 33 17 -2
16 -39 236 -123 740 -8 51 -6 71 4 38 3 -10 39 -178 81 -373 42 -195 80 -371
85 -391 l10 -35 77 9 c229 25 468 124 509 210 16 33 15 38 -40 213 -60 196
-134 484 -191 749 -20 94 -38 176 -41 183 -6 21 -44 -9 -44 -36 0 -40 98 -515
141 -684 71 -279 57 -270 -31 18 -53 176 -170 609 -170 631 0 17 -11 16 -60
-3 -22 -9 -40 -23 -40 -31 0 -12 -8 -14 -35 -9 -19 4 -52 2 -73 -3 -30 -9 -40
-17 -47 -43 -8 -27 -16 -34 -41 -36 -37 -4 -64 19 -64 53 0 13 8 29 18 34 13
8 14 10 2 11 -8 0 -26 -13 -40 -30 -24 -29 -29 -30 -125 -36 -124 -7 -136 -1
-110 53 10 21 21 45 25 53 4 8 27 18 51 22 33 6 53 17 82 48 35 37 45 42 145
63 96 21 111 22 142 9 47 -19 99 -3 123 37 14 25 120 95 149 100 4 0 10 -11
14 -26z m-1752 -292 c17 -38 96 -54 139 -27 19 12 38 12 131 0 98 -12 113 -17
140 -43 42 -39 68 -51 111 -51 31 0 38 -5 51 -32 8 -18 20 -41 26 -50 22 -31
-5 -42 -113 -46 l-101 -4 -28 31 c-16 17 -34 31 -41 31 -8 0 -6 -6 4 -18 20
-22 22 -63 5 -80 -28 -28 -98 -1 -98 38 0 22 -81 35 -113 19 -17 -9 -23 -8
-34 7 -15 20 -90 47 -98 34 -2 -4 -23 -114 -45 -244 -37 -219 -107 -561 -129
-631 -14 -46 -13 -6 4 81 29 154 105 750 105 823 0 11 -39 35 -46 28 -2 -2
-18 -105 -34 -228 -41 -298 -83 -549 -127 -746 -35 -162 -35 -162 -17 -194 49
-83 329 -169 551 -169 51 0 52 1 58 33 7 43 49 370 75 587 12 96 23 180 26
185 8 19 -29 -534 -50 -748 l-5 -48 37 3 37 3 8 125 c14 236 46 655 58 757
l12 101 36 5 c20 2 38 3 40 1 2 -2 -3 -106 -13 -231 -22 -304 -40 -712 -32
-721 11 -11 61 25 67 50 4 13 8 100 8 193 2 272 43 899 60 918 4 4 15 5 24 1
21 -8 21 -20 2 -249 -18 -230 -33 -507 -41 -807 l-7 -238 -24 0 c-20 0 -23 5
-23 40 0 22 -1 40 -3 40 -2 0 -22 -9 -45 -20 -39 -19 -99 -34 -167 -43 -28 -4
-28 -5 -7 -12 12 -4 22 -11 22 -15 0 -11 -103 -19 -121 -9 -30 16 -191 39
-269 39 -82 0 -110 -6 -110 -22 0 -12 79 -48 108 -48 50 0 17 -17 -60 -30
-134 -22 -174 -20 -250 18 -111 55 -125 90 -92 237 28 126 28 141 7 175 -11
17 -51 63 -88 101 -37 38 -65 69 -61 69 4 0 35 -22 69 -50 66 -53 94 -61 121
-32 17 20 71 316 121 667 45 313 45 314 -92 339 -48 9 -97 16 -108 16 -44 0
-99 -23 -137 -58 -25 -22 -37 -29 -31 -17 15 28 52 59 93 81 36 18 92 22 212
14 62 -5 70 -3 93 21 20 19 28 40 32 81 l5 55 77 -33 c42 -19 80 -42 85 -53z
m2073 17 c60 -67 160 -447 164 -626 l2 -55 -66 -64 c-35 -34 -69 -63 -74 -63
-40 0 -67 84 -174 538 -56 240 -56 242 1 264 79 32 121 34 147 6z m-1179 -345
c57 -343 92 -600 116 -843 19 -185 34 -276 52 -312 8 -15 36 -38 66 -53 l53
-26 -64 5 c-35 3 -145 6 -244 6 l-179 0 6 248 c10 348 45 932 62 1015 4 19 17
33 45 48 22 11 42 26 46 34 12 32 20 9 41 -122z m-1193 78 c20 -11 31 -26 33
-45 7 -57 -99 -718 -118 -741 -7 -8 -19 -15 -27 -15 -20 0 -106 63 -139 103
-27 32 -27 32 -20 152 13 242 71 517 119 558 17 15 30 17 71 12 28 -4 65 -15
81 -24z m1535 -1406 c226 -20 362 -39 590 -85 283 -58 447 -106 864 -256 42
-15 95 -26 132 -27 34 -1 60 -5 58 -9 -7 -10 -100 -28 -152 -28 -62 -1 -37
-17 49 -32 80 -14 59 -28 -52 -35 -44 -3 -77 -8 -75 -11 3 -3 38 -12 78 -22
l72 -17 -47 -11 c-25 -7 -69 -12 -98 -12 -67 0 -58 -8 33 -30 l73 -17 -40 -11
c-22 -7 -67 -12 -100 -12 -73 -1 -58 -14 37 -34 l63 -13 -40 -11 c-22 -7 -67
-12 -100 -12 -75 0 -58 -14 40 -32 l70 -12 -40 -12 c-22 -7 -69 -13 -105 -14
-77 -1 -66 -13 32 -34 l63 -13 -40 -11 c-22 -7 -67 -12 -100 -13 -59 -1 -59
-1 -30 -14 17 -8 54 -17 84 -21 34 -4 48 -9 40 -15 -18 -11 -115 -24 -159 -21
l-35 2 30 -15 c17 -7 54 -17 84 -21 33 -4 48 -10 40 -15 -17 -10 -104 -22
-154 -21 l-40 1 30 -14 c17 -8 56 -17 88 -21 70 -8 57 -24 -20 -24 -37 0 -89
14 -188 50 -943 347 -1949 346 -2883 -4 -126 -47 -215 -60 -252 -36 -11 7 -7
10 18 10 39 0 123 19 136 31 5 4 -16 8 -46 8 -31 0 -75 5 -99 12 l-44 12 70
14 c89 19 101 30 32 31 -29 0 -74 6 -98 13 l-44 12 77 17 c88 19 112 32 53 29
-47 -2 -136 9 -153 20 -8 4 16 13 58 20 88 16 99 31 23 32 -32 0 -76 6 -98 13
l-40 12 70 12 c97 18 116 32 42 32 -32 0 -79 5 -105 12 l-46 11 69 14 c101 21
113 32 35 33 -36 1 -83 7 -105 14 l-40 13 70 12 c103 18 108 27 17 34 -102 6
-134 21 -72 32 24 4 60 13 80 21 l35 13 -60 0 c-33 1 -78 6 -100 12 l-40 12
73 17 c91 22 100 30 33 30 -52 0 -138 17 -145 29 -2 3 24 7 59 8 35 1 87 11
116 22 30 10 106 38 169 61 416 151 830 243 1280 284 201 19 618 19 820 1z"/>
        <path d="M4013 2344 c-23 -23 -67 -54 -99 -70 l-58 -28 65 -13 c35 -7 77 -23
93 -34 l28 -21 31 30 30 31 -17 67 c-9 38 -20 71 -24 74 -4 3 -26 -14 -49 -36z"/>
        <path d="M3137 2194 c-6 -7 2 -80 14 -120 9 -29 43 -54 73 -54 8 0 23 15 34
33 10 18 40 47 66 63 44 28 62 50 32 38 -21 -8 -153 14 -186 31 -15 8 -30 12
-33 9z"/>
        <path d="M3621 2175 c-124 -27 -209 -64 -196 -86 4 -5 35 -9 71 -9 124 0 325
56 332 93 3 15 -5 17 -70 16 -40 0 -102 -7 -137 -14z"/>
        <path d="M1651 2108 c-5 -13 -12 -47 -16 -76 -7 -50 -6 -53 26 -82 l32 -31 24
22 c13 13 53 32 89 44 l66 21 -48 19 c-56 21 -115 56 -145 86 -19 19 -19 19
-28 -3z"/>
        <path d="M1935 1451 l0 -121 86 0 c102 0 147 13 155 45 7 29 -11 65 -34 66
-14 0 -13 3 6 16 28 20 29 64 1 89 -16 14 -40 19 -117 22 l-97 4 0 -121z"/>
        <path d="M2255 1430 l0 -100 88 0 c84 0 87 1 87 23 0 21 -3 22 -70 19 -65 -3
-70 -2 -70 17 0 18 6 21 50 21 43 0 50 3 50 20 0 17 -7 20 -50 20 -44 0 -50 3
-50 21 0 19 5 20 70 17 67 -3 70 -2 70 20 0 21 -3 22 -87 22 l-88 0 0 -100z"/>
        <path d="M2505 1430 l0 -100 88 0 c84 0 87 1 87 23 0 21 -3 22 -70 19 -65 -3
-70 -2 -70 17 0 18 6 21 50 21 43 0 50 3 50 20 0 17 -7 20 -50 20 -44 0 -50 3
-50 21 0 19 5 20 70 17 67 -3 70 -2 70 20 0 21 -3 22 -87 22 l-88 0 0 -100z"/>
        <path d="M2750 1430 c0 -98 1 -100 23 -100 20 0 23 4 19 36 l-4 35 38 -3 c31
-2 43 -9 59 -35 15 -24 28 -32 48 -33 l28 0 -25 33 c-31 41 -32 48 -5 65 15
10 19 21 17 45 -4 43 -35 57 -125 57 l-73 0 0 -100z"/>
        <path d="M3025 1430 l0 -102 83 4 c77 3 86 5 108 31 16 19 24 40 24 67 0 27
-8 48 -24 67 -22 26 -31 28 -108 31 l-83 4 0 -102z"/>
        <path d="M3305 1430 l0 -100 88 0 c84 0 87 1 87 23 0 21 -3 22 -70 19 -65 -3
-70 -2 -70 17 0 18 6 21 50 21 43 0 50 3 50 20 0 17 -7 20 -50 20 -44 0 -50 3
-50 21 0 19 5 20 70 17 67 -3 70 -2 70 20 0 21 -3 22 -87 22 l-88 0 0 -100z"/>
        <path d="M3560 1430 c0 -98 1 -100 23 -100 20 0 23 4 19 36 l-4 35 38 -3 c31
-2 43 -9 59 -35 15 -24 28 -32 48 -33 l28 0 -25 33 c-31 41 -32 48 -5 65 15
10 19 21 17 45 -4 43 -35 57 -125 57 l-73 0 0 -100z"/>
        <path d="M4233 4138 c-18 -6 -33 -16 -33 -23 0 -13 65 -62 118 -89 33 -17 212
-29 212 -14 0 5 -44 24 -129 54 -8 2 -11 7 -9 10 3 3 31 -2 63 -11 31 -9 58
-15 59 -13 2 1 1 20 -1 40 -4 30 -10 39 -36 47 -38 14 -201 12 -244 -1z"/>
        <path d="M772 4038 c-16 -20 -42 -134 -42 -188 0 -29 7 -56 21 -75 11 -16 31
-52 45 -78 14 -27 28 -47 30 -44 3 3 -2 42 -11 88 -8 45 -13 84 -11 86 2 3 12
-22 21 -54 26 -94 22 -90 57 -56 30 31 30 31 18 84 -13 55 -76 199 -102 232
-12 16 -16 17 -26 5z"/>
        <path d="M4882 4037 c-19 -24 -72 -133 -92 -192 -36 -103 -37 -297 -1 -260 8
9 44 119 70 215 16 61 13 -8 -4 -91 -17 -81 -14 -99 9 -45 8 20 32 61 52 92
35 53 36 57 30 118 -7 69 -32 162 -45 170 -5 3 -13 0 -19 -7z"/>
        <path d="M1137 3969 c-20 -5 -59 -20 -85 -33 -65 -33 -149 -126 -113 -126 5 0
55 20 112 45 134 58 160 57 45 -1 -48 -25 -86 -47 -85 -49 2 -2 29 3 59 11 30
8 74 14 98 14 48 0 101 31 161 94 l34 35 -27 11 c-32 12 -146 12 -199 -1z"/>
        <path d="M4343 3974 c-34 -8 -28 -25 25 -70 73 -62 91 -71 169 -78 39 -3 78
-9 87 -12 9 -3 16 -2 16 3 0 5 -31 24 -70 43 -38 18 -68 35 -66 37 1 2 29 -6
61 -17 32 -11 60 -20 62 -20 1 0 3 17 3 38 0 36 -3 40 -42 56 -43 18 -199 30
-245 20z"/>
        <path d="M651 3766 c-6 -25 -11 -78 -11 -119 0 -73 1 -74 48 -134 26 -33 53
-69 60 -79 11 -17 12 -15 6 16 -3 19 -12 57 -21 83 -22 71 -8 69 18 -2 12 -34
25 -61 30 -61 4 0 17 14 29 31 22 30 22 31 5 77 -34 92 -121 232 -145 232 -4
0 -13 -20 -19 -44z"/>
        <path d="M4962 3767 c-42 -59 -96 -170 -116 -236 -18 -62 -22 -171 -5 -171 11
0 89 158 89 181 1 8 7 25 16 39 15 25 15 25 8 -10 -4 -19 -17 -66 -29 -105
-20 -62 -21 -67 -4 -45 10 14 41 57 70 95 l51 70 -5 85 c-6 85 -19 140 -35
140 -5 0 -23 -20 -40 -43z"/>
        <path d="M1073 3785 c-29 -8 -71 -24 -94 -36 -67 -34 -156 -136 -136 -155 3
-3 54 22 115 56 60 33 113 60 118 60 4 0 -29 -25 -74 -56 -81 -56 -103 -81
-44 -50 17 9 61 21 99 28 64 12 72 17 131 74 34 34 62 69 62 78 0 13 -12 16
-62 15 -35 0 -87 -7 -115 -14z"/>
        <path d="M4425 3790 c-3 -5 23 -39 57 -75 61 -64 66 -67 138 -81 41 -9 83 -20
92 -25 12 -6 18 -6 18 0 0 5 -29 29 -65 52 -35 24 -63 45 -61 47 3 2 29 -10
60 -28 61 -33 71 -30 64 26 -4 34 -39 57 -123 78 -66 18 -171 21 -180 6z"/>
        <path d="M1095 3609 c-128 -16 -249 -89 -295 -180 -39 -76 -25 -77 71 -5 135
100 176 115 59 20 -72 -58 -87 -82 -28 -46 18 11 61 28 96 38 51 14 68 25 95
58 58 72 80 107 71 115 -5 4 -36 4 -69 0z"/>
        <path d="M4510 3602 c0 -11 80 -122 101 -139 8 -6 41 -19 74 -28 33 -9 70 -23
83 -31 45 -29 20 7 -37 53 -33 26 -58 49 -56 51 2 2 28 -13 59 -34 31 -20 58
-35 61 -33 2 3 5 21 7 41 3 44 -21 67 -102 99 -61 24 -190 38 -190 21z"/>
        <path d="M576 3548 c-9 -34 -7 -148 4 -192 6 -28 26 -57 71 -102 35 -35 65
-62 67 -60 2 2 -11 37 -28 76 -38 86 -33 106 7 26 15 -31 31 -55 36 -53 4 1
17 16 27 33 l20 31 -25 49 c-27 53 -150 214 -164 214 -5 0 -11 -10 -15 -22z"/>
        <path d="M5034 3515 c-88 -101 -148 -220 -167 -330 -5 -28 6 -66 16 -55 11 15
86 142 107 182 40 77 35 46 -8 -51 -42 -95 -43 -115 -3 -56 13 19 41 50 62 69
55 51 62 69 63 177 1 129 -7 137 -70 64z"/>
        <path d="M984 3400 c-115 -41 -208 -128 -234 -221 -15 -51 9 -42 93 36 104 97
141 117 61 34 -95 -101 -109 -125 -40 -70 21 17 58 38 84 47 26 9 55 24 64 33
22 21 88 131 88 148 0 18 -54 15 -116 -7z"/>
        <path d="M4577 3404 c13 -36 71 -129 90 -145 10 -9 38 -24 62 -33 25 -10 57
-26 73 -37 45 -33 32 -5 -29 63 -37 40 -47 55 -28 41 17 -12 41 -33 54 -47 14
-14 27 -26 31 -26 3 0 12 16 19 36 12 33 11 38 -10 60 -36 38 -161 96 -219
102 -46 4 -50 3 -43 -14z"/>
        <path d="M524 3229 c8 -98 28 -159 58 -179 13 -8 44 -35 71 -59 26 -24 47 -38
47 -30 0 7 -18 44 -41 82 -22 38 -39 70 -37 72 2 2 22 -23 43 -55 22 -33 43
-60 46 -60 3 0 13 16 23 36 l17 37 -37 56 c-43 66 -159 181 -181 181 -14 0
-15 -12 -9 -81z"/>
        <path d="M5076 3259 c-104 -95 -195 -247 -196 -326 0 -54 2 -52 101 87 34 47
66 90 72 95 10 10 -56 -114 -80 -150 -30 -45 -8 -32 72 42 76 71 86 83 94 128
16 76 18 167 5 172 -6 2 -37 -20 -68 -48z"/>
        <path d="M980 3207 c-129 -53 -208 -133 -241 -245 -21 -71 1 -71 58 0 47 57
152 164 126 128 -5 -8 -30 -42 -55 -75 -64 -86 -66 -93 -19 -55 23 19 64 46
89 60 39 21 53 37 84 98 39 76 47 112 26 112 -7 0 -38 -11 -68 -23z"/>
        <path d="M4620 3209 c0 -12 16 -55 36 -95 28 -55 44 -76 67 -85 17 -7 50 -28
75 -47 24 -18 46 -31 49 -28 3 2 -15 31 -39 63 -64 83 -67 97 -9 33 52 -57 58
-57 79 -7 11 26 9 30 -32 71 -43 41 -143 97 -198 110 -24 5 -28 3 -28 -15z"/>
        <path d="M502 3000 c3 -36 15 -91 27 -122 20 -51 29 -61 98 -108 41 -28 78
-49 81 -46 2 3 -13 29 -35 58 -57 77 -61 90 -9 33 47 -51 53 -51 74 -3 10 25
8 31 -17 60 -15 18 -36 43 -47 56 -20 24 -97 85 -148 118 l-29 18 5 -64z"/>
        <path d="M5088 3001 c-36 -27 -86 -73 -112 -103 -59 -67 -124 -194 -108 -210
14 -14 26 -5 114 95 79 90 89 88 20 -5 -69 -91 -71 -97 -27 -62 22 17 66 48
97 69 52 34 59 43 78 100 11 34 23 85 27 113 8 67 -4 67 -89 3z"/>
        <path d="M975 3006 c-115 -53 -205 -158 -224 -261 -17 -90 0 -84 78 25 40 56
75 99 77 97 3 -2 -14 -34 -36 -71 -55 -91 -60 -110 -16 -59 20 22 56 54 81 70
46 29 70 69 94 158 20 74 19 75 -54 41z"/>
        <path d="M4643 2993 c3 -21 14 -63 26 -94 17 -44 31 -63 69 -90 26 -18 57 -45
70 -58 22 -24 44 -23 25 1 -5 7 -24 40 -42 73 -30 56 -31 58 -6 30 14 -16 33
-42 43 -57 9 -16 19 -28 22 -28 3 0 13 16 23 36 21 43 16 55 -56 120 -45 41
-149 104 -173 104 -4 0 -4 -17 -1 -37z"/>
        <path d="M990 2808 c-95 -59 -161 -137 -191 -225 -20 -62 -23 -134 -4 -140 6
-1 35 45 65 103 65 124 94 158 46 53 -18 -41 -37 -85 -41 -99 l-7 -25 18 25
c9 14 43 52 75 85 48 50 60 70 73 121 17 66 21 124 9 124 -5 0 -24 -10 -43
-22z"/>
        <path d="M4639 2823 c-3 -22 4 -74 16 -125 13 -50 24 -67 81 -123 37 -36 68
-64 70 -63 1 2 -13 36 -32 77 -19 41 -33 76 -31 78 2 1 19 -24 38 -57 19 -33
36 -59 39 -60 3 0 15 15 27 32 l22 32 -22 38 c-12 22 -44 61 -72 88 -50 47
-134 98 -136 83z"/>
        <path d="M504 2753 c3 -25 20 -77 38 -115 31 -68 32 -69 117 -113 47 -24 87
-42 90 -39 3 2 -15 26 -40 52 -77 81 -86 98 -24 44 62 -54 66 -54 79 1 6 25 1
34 -36 68 -51 47 -162 124 -203 139 l-28 11 7 -48z"/>
        <path d="M5104 2764 c-133 -80 -216 -161 -265 -256 -42 -82 1 -65 123 49 37
35 70 63 74 63 7 0 -87 -110 -111 -130 -33 -27 -12 -28 29 0 24 16 63 38 87
48 24 11 51 28 61 38 37 43 95 224 71 224 -5 0 -36 -16 -69 -36z"/>
        <path d="M1014 2601 c-80 -59 -134 -136 -160 -229 -18 -63 -12 -156 8 -150 6
2 24 37 40 77 49 124 58 144 63 139 3 -3 -6 -40 -20 -83 -27 -83 -27 -107 -1
-56 9 17 37 56 63 87 43 54 47 63 56 141 13 103 5 114 -49 74z"/>
        <path d="M4610 2581 c0 -90 18 -153 54 -191 18 -19 43 -50 56 -68 12 -18 24
-31 26 -29 2 2 -5 34 -17 72 -32 104 -32 105 4 32 l34 -69 26 32 c26 30 26 33
12 67 -24 56 -82 129 -134 168 -27 19 -51 35 -55 35 -3 0 -6 -22 -6 -49z"/>
        <path d="M530 2523 c0 -25 67 -163 92 -190 12 -12 44 -30 72 -39 28 -9 64 -23
79 -31 16 -8 31 -13 33 -10 3 2 -26 35 -63 72 l-68 67 63 -47 c34 -27 64 -46
66 -44 3 2 6 22 8 43 3 37 0 42 -47 78 -47 36 -161 96 -212 112 -18 6 -23 3
-23 -11z"/>
        <path d="M5077 2516 c-89 -37 -165 -85 -227 -146 -60 -58 -97 -117 -83 -130 7
-7 43 16 205 128 18 13 -3 -11 -47 -52 -44 -42 -74 -76 -68 -76 7 0 14 4 17 9
3 4 40 21 83 36 43 15 85 34 94 42 20 17 86 146 95 186 7 33 4 33 -69 3z"/>
        <path d="M1041 2375 c-75 -79 -112 -164 -113 -257 -1 -71 16 -130 31 -112 4 5
13 32 20 59 41 165 81 255 47 106 -23 -103 -19 -113 17 -45 18 34 43 74 55 89
18 23 22 41 22 99 0 74 -7 116 -20 116 -4 0 -30 -25 -59 -55z"/>
        <path d="M4567 2423 c-4 -3 -7 -46 -7 -95 0 -88 0 -88 45 -154 25 -36 45 -69
45 -75 0 -5 4 -9 9 -9 5 0 2 30 -5 67 -18 83 -12 105 9 35 22 -74 25 -75 58
-44 l30 28 -16 43 c-21 59 -51 107 -104 164 -44 47 -52 52 -64 40z"/>
        <path d="M590 2267 c0 -19 67 -127 100 -162 22 -23 48 -34 107 -48 43 -10 84
-21 92 -24 28 -11 -1 17 -54 52 -76 51 -91 74 -19 31 32 -20 62 -36 67 -36 4
0 7 20 7 44 l0 44 -67 35 c-74 38 -180 77 -213 77 -11 0 -20 -6 -20 -13z"/>
        <path d="M4983 2260 c-77 -27 -151 -67 -210 -111 -59 -44 -108 -103 -98 -118
6 -11 107 37 205 95 64 38 29 5 -60 -56 -41 -29 -64 -49 -50 -45 14 4 63 18
110 30 71 19 90 29 116 59 28 33 94 145 94 160 0 12 -55 4 -107 -14z"/>
        <path d="M1125 2198 c-61 -72 -88 -141 -93 -238 -4 -84 13 -160 36 -160 4 0
16 51 26 113 10 63 22 120 28 128 6 10 8 1 4 -26 -16 -126 -17 -157 -7 -151 6
4 11 15 11 24 0 10 16 50 35 91 24 49 35 87 35 116 0 55 -19 145 -30 145 -5 0
-25 -19 -45 -42z"/>
        <path d="M4491 2203 c-25 -103 -23 -136 14 -207 19 -37 35 -74 35 -81 0 -8 5
-17 11 -21 9 -5 10 15 6 77 -6 83 1 78 20 -14 l8 -37 33 22 c30 21 32 26 27
63 -10 71 -104 235 -135 235 -5 0 -13 -17 -19 -37z"/>
        <path d="M4402 2034 c-7 -14 -18 -56 -24 -94 -11 -61 -10 -72 9 -116 12 -27
24 -64 28 -81 12 -60 25 -34 26 55 l2 87 9 -70 c5 -38 11 -71 13 -73 2 -2 17
4 34 13 26 13 31 21 31 53 0 21 -7 61 -15 88 -16 53 -73 156 -91 161 -6 2 -16
-8 -22 -23z"/>
        <path d="M677 2033 c-8 -12 60 -108 107 -151 38 -35 49 -39 112 -45 38 -4 80
-10 93 -14 43 -11 14 14 -60 53 -38 20 -68 39 -66 41 3 2 32 -8 66 -23 34 -15
64 -24 67 -21 3 3 2 22 -2 42 -6 33 -13 40 -59 61 -91 42 -247 76 -258 57z"/>
        <path d="M4870 2019 c-100 -26 -226 -88 -272 -134 -63 -62 -49 -70 57 -30 37
14 84 34 105 45 44 22 54 25 45 10 -4 -6 -43 -29 -87 -51 -44 -22 -78 -42 -77
-44 2 -1 33 3 69 11 36 7 80 14 99 14 21 0 47 10 66 25 38 29 125 141 125 161
0 19 -39 17 -130 -7z"/>
    </g>
</svg>
